<svg width="165" height="47" viewBox="0 0 165 47" fill="none" xmlns="http://www.w3.org/2000/svg">
<path d="M115.586 38.9013H106.449V27.5656H115.586C120.198 27.5656 120.908 28.804 120.908 33.2811C120.908 37.6629 120.198 38.9013 115.586 38.9013ZM106.449 9.46673H114.432C119.311 9.46673 119.755 10.8956 119.755 14.5154C119.755 18.4209 119.045 19.564 114.432 19.564H106.449V9.46673ZM125.343 23.2791C128.448 20.8976 128.892 17.1826 128.892 13.8486C128.892 5.27541 124.722 1.56036 114.876 1.56036H102.013C98.5538 1.56036 97.5781 2.13191 97.5781 5.84695V42.4258C97.5781 46.2361 98.4651 46.7124 102.013 46.7124H116.029C125.964 46.7124 130.045 42.9974 130.045 33.8526C130.045 29.6613 129.424 25.47 125.343 23.2791Z" fill="#20A6FF"/>
<path d="M137.497 14.7994C134.038 14.7994 133.239 15.5614 133.239 19.086V42.5193C133.239 46.0438 134.038 46.8059 137.497 46.8059C140.957 46.8059 141.755 46.0438 141.755 42.5193V19.086C141.755 15.5614 141.045 14.7994 137.497 14.7994Z" fill="#20A6FF"/>
<path d="M18.0075 38.9013H8.87068V27.5656H18.0075C22.6202 27.5656 23.3299 28.804 23.3299 33.2811C23.3299 37.6629 22.6202 38.9013 18.0075 38.9013ZM8.87068 9.46673H16.8543C21.7332 9.46673 22.1767 10.8956 22.1767 14.5154C22.1767 18.4209 21.467 19.564 16.8543 19.564H8.87068V9.46673ZM27.7652 23.2791C30.87 20.8976 31.3135 17.1826 31.3135 13.8486C31.3135 5.18015 27.0556 1.56036 17.2978 1.56036H4.43534C0.887068 1.56036 0 2.03665 0 5.84695V42.4258C0 46.2361 0.887068 46.7124 4.43534 46.7124H18.451C28.3862 46.7124 32.4667 42.9974 32.4667 33.8526C32.4667 29.6613 31.8457 25.47 27.7652 23.2791Z" fill="#20A6FF"/>
<path d="M54.38 36.9027C51.0978 38.3316 48.5253 39.3794 46.5738 39.3794C45.3319 39.3794 44.1787 39.3794 44.1787 30.8062C44.1787 22.1378 45.4206 22.1378 46.5738 22.1378C48.5253 22.1378 51.0978 23.0904 54.38 24.7097V36.9027ZM58.5492 14.803C55.7993 14.803 54.8235 15.2793 54.4687 17.1844C50.6543 15.4698 47.5495 14.4219 44.4448 14.4219C38.1466 14.4219 35.7515 18.8038 35.7515 30.711C35.7515 42.6181 38.1466 47 44.4448 47C47.7269 47 50.9204 45.9522 54.5574 44.2375C54.8235 46.1427 55.888 46.619 58.6379 46.619C62.0975 46.619 62.8958 45.8569 62.8958 42.3324V19.0896C62.8071 15.4698 62.0087 14.803 58.5492 14.803Z" fill="#20A6FF"/>
<path d="M85.1554 14.5187C82.0507 14.5187 78.9459 15.5665 75.1315 17.2811C74.8654 15.2807 73.8009 14.8997 71.051 14.8997C67.5914 14.8997 66.7931 15.5665 66.7931 19.1863V42.6196C66.7931 46.1441 67.5914 46.9062 71.051 46.9062C74.5106 46.9062 75.3089 46.1441 75.3089 42.6196V24.7112C78.5911 23.1871 81.1636 22.1393 83.0264 22.1393C83.6474 22.1393 84.357 22.2345 84.8006 23.3776C85.1554 24.616 85.0667 26.4259 85.0667 26.4259V42.4291C85.0667 45.9536 85.8651 46.7157 89.4133 46.7157C92.9616 46.7157 93.76 45.9536 93.76 42.4291V26.8069C93.76 26.8069 93.6713 23.9492 93.4938 22.7108C92.0745 16.9001 89.7682 14.5187 85.1554 14.5187Z" fill="#20A6FF"/>
<path d="M159.497 9.56419C160.118 9.46894 164.819 10.0405 164.997 5.65864C165.085 2.6104 163.488 1.65782 160.029 1.56256C158.255 1.46731 156.392 1.46731 154.618 1.84834C152.489 2.32462 150.715 3.2772 149.916 4.89658C149.207 6.13492 148.852 7.84956 148.497 10.1357C148.32 11.5646 148.231 12.9935 148.231 14.8034C145.304 14.8034 143.973 15.0891 143.973 18.5184C143.973 21.8524 145.392 22.1382 148.231 22.1382V42.5233C148.231 46.0478 149.029 46.8099 152.489 46.8099C155.948 46.8099 156.747 46.0478 156.747 42.5233V22.1382H158.964C161.98 22.1382 163.577 21.9477 163.577 18.5184C163.577 14.9939 162.069 14.8034 158.964 14.8034H156.747C156.747 11.3741 156.303 9.56419 159.497 9.56419Z" fill="#20A6FF"/>
<path d="M137.497 8.70446C134.925 9.75229 133.328 5.94199 134.215 4.32262C134.481 3.75107 135.546 2.32221 137.408 2.89375C140.07 3.56056 140.07 7.65663 137.497 8.70446ZM139.005 0.226546C135.102 -0.821286 132.973 2.03644 132.441 3.27478C130.489 6.79931 133.86 14.6104 139.094 12.4195C144.416 10.2286 144.416 1.75067 139.005 0.226546Z" fill="#C4D600"/>
</svg>
