<svg width="255" height="243" viewBox="0 0 255 243" fill="none" xmlns="http://www.w3.org/2000/svg">
<g filter="url(#filter0_d_119_17)">
<rect x="32" y="19" width="189" height="81" rx="23.1483" fill="white"/>
</g>
<g filter="url(#filter1_d_119_17)">
<rect x="32" y="115" width="189" height="81" rx="23.1483" fill="white"/>
</g>
<path d="M96.8984 55.5352C96.8984 55.2305 96.8516 54.957 96.7578 54.7148C96.6719 54.4648 96.5078 54.2383 96.2656 54.0352C96.0234 53.8242 95.6836 53.6172 95.2461 53.4141C94.8086 53.2109 94.2422 53 93.5469 52.7812C92.7734 52.5312 92.0391 52.25 91.3438 51.9375C90.6562 51.625 90.0469 51.2617 89.5156 50.8477C88.9922 50.4258 88.5781 49.9375 88.2734 49.3828C87.9766 48.8281 87.8281 48.1836 87.8281 47.4492C87.8281 46.7383 87.9844 46.0938 88.2969 45.5156C88.6094 44.9297 89.0469 44.4297 89.6094 44.0156C90.1719 43.5938 90.8359 43.2695 91.6016 43.043C92.375 42.8164 93.2227 42.7031 94.1445 42.7031C95.4023 42.7031 96.5 42.9297 97.4375 43.3828C98.375 43.8359 99.1016 44.457 99.6172 45.2461C100.141 46.0352 100.402 46.9375 100.402 47.9531H96.9102C96.9102 47.4531 96.8047 47.0156 96.5938 46.6406C96.3906 46.2578 96.0781 45.957 95.6562 45.7383C95.2422 45.5195 94.7188 45.4102 94.0859 45.4102C93.4766 45.4102 92.9688 45.5039 92.5625 45.6914C92.1562 45.8711 91.8516 46.1172 91.6484 46.4297C91.4453 46.7344 91.3438 47.0781 91.3438 47.4609C91.3438 47.75 91.4141 48.0117 91.5547 48.2461C91.7031 48.4805 91.9219 48.6992 92.2109 48.9023C92.5 49.1055 92.8555 49.2969 93.2773 49.4766C93.6992 49.6562 94.1875 49.832 94.7422 50.0039C95.6719 50.2852 96.4883 50.6016 97.1914 50.9531C97.9023 51.3047 98.4961 51.6992 98.9727 52.1367C99.4492 52.5742 99.8086 53.0703 100.051 53.625C100.293 54.1797 100.414 54.8086 100.414 55.5117C100.414 56.2539 100.27 56.918 99.9805 57.5039C99.6914 58.0898 99.2734 58.5859 98.7266 58.9922C98.1797 59.3984 97.5273 59.707 96.7695 59.918C96.0117 60.1289 95.1641 60.2344 94.2266 60.2344C93.3828 60.2344 92.5508 60.125 91.7305 59.9062C90.9102 59.6797 90.1641 59.3398 89.4922 58.8867C88.8281 58.4336 88.2969 57.8555 87.8984 57.1523C87.5 56.4492 87.3008 55.6172 87.3008 54.6562H90.8281C90.8281 55.1875 90.9102 55.6367 91.0742 56.0039C91.2383 56.3711 91.4688 56.668 91.7656 56.8945C92.0703 57.1211 92.4297 57.2852 92.8438 57.3867C93.2656 57.4883 93.7266 57.5391 94.2266 57.5391C94.8359 57.5391 95.3359 57.4531 95.7266 57.2812C96.125 57.1094 96.418 56.8711 96.6055 56.5664C96.8008 56.2617 96.8984 55.918 96.8984 55.5352ZM109.883 42.9375L103.625 61.4648H101.117L107.375 42.9375H109.883ZM129.008 57.3633V60H117.336V57.75L122.855 51.832C123.41 51.2148 123.848 50.6719 124.168 50.2031C124.488 49.7266 124.719 49.3008 124.859 48.9258C125.008 48.543 125.082 48.1797 125.082 47.8359C125.082 47.3203 124.996 46.8789 124.824 46.5117C124.652 46.1367 124.398 45.8477 124.062 45.6445C123.734 45.4414 123.328 45.3398 122.844 45.3398C122.328 45.3398 121.883 45.4648 121.508 45.7148C121.141 45.9648 120.859 46.3125 120.664 46.7578C120.477 47.2031 120.383 47.707 120.383 48.2695H116.996C116.996 47.2539 117.238 46.3242 117.723 45.4805C118.207 44.6289 118.891 43.9531 119.773 43.4531C120.656 42.9453 121.703 42.6914 122.914 42.6914C124.109 42.6914 125.117 42.8867 125.938 43.2773C126.766 43.6602 127.391 44.2148 127.812 44.9414C128.242 45.6602 128.457 46.5195 128.457 47.5195C128.457 48.082 128.367 48.6328 128.188 49.1719C128.008 49.7031 127.75 50.2344 127.414 50.7656C127.086 51.2891 126.688 51.8203 126.219 52.3594C125.75 52.8984 125.23 53.457 124.66 54.0352L121.695 57.3633H129.008ZM142.602 49.9688V52.9219C142.602 54.2031 142.465 55.3086 142.191 56.2383C141.918 57.1602 141.523 57.918 141.008 58.5117C140.5 59.0977 139.895 59.5312 139.191 59.8125C138.488 60.0938 137.707 60.2344 136.848 60.2344C136.16 60.2344 135.52 60.1484 134.926 59.9766C134.332 59.7969 133.797 59.5195 133.32 59.1445C132.852 58.7695 132.445 58.2969 132.102 57.7266C131.766 57.1484 131.508 56.4609 131.328 55.6641C131.148 54.8672 131.059 53.9531 131.059 52.9219V49.9688C131.059 48.6875 131.195 47.5898 131.469 46.6758C131.75 45.7539 132.145 45 132.652 44.4141C133.168 43.8281 133.777 43.3984 134.48 43.125C135.184 42.8438 135.965 42.7031 136.824 42.7031C137.512 42.7031 138.148 42.793 138.734 42.9727C139.328 43.1445 139.863 43.4141 140.34 43.7812C140.816 44.1484 141.223 44.6211 141.559 45.1992C141.895 45.7695 142.152 46.4531 142.332 47.25C142.512 48.0391 142.602 48.9453 142.602 49.9688ZM139.215 53.3672V49.5117C139.215 48.8945 139.18 48.3555 139.109 47.8945C139.047 47.4336 138.949 47.043 138.816 46.7227C138.684 46.3945 138.52 46.1289 138.324 45.9258C138.129 45.7227 137.906 45.5742 137.656 45.4805C137.406 45.3867 137.129 45.3398 136.824 45.3398C136.441 45.3398 136.102 45.4141 135.805 45.5625C135.516 45.7109 135.27 45.9492 135.066 46.2773C134.863 46.5977 134.707 47.0273 134.598 47.5664C134.496 48.0977 134.445 48.7461 134.445 49.5117V53.3672C134.445 53.9844 134.477 54.5273 134.539 54.9961C134.609 55.4648 134.711 55.8672 134.844 56.2031C134.984 56.5312 135.148 56.8008 135.336 57.0117C135.531 57.2148 135.754 57.3633 136.004 57.457C136.262 57.5508 136.543 57.5977 136.848 57.5977C137.223 57.5977 137.555 57.5234 137.844 57.375C138.141 57.2188 138.391 56.9766 138.594 56.6484C138.805 56.3125 138.961 55.875 139.062 55.3359C139.164 54.7969 139.215 54.1406 139.215 53.3672ZM156.383 49.9688V52.9219C156.383 54.2031 156.246 55.3086 155.973 56.2383C155.699 57.1602 155.305 57.918 154.789 58.5117C154.281 59.0977 153.676 59.5312 152.973 59.8125C152.27 60.0938 151.488 60.2344 150.629 60.2344C149.941 60.2344 149.301 60.1484 148.707 59.9766C148.113 59.7969 147.578 59.5195 147.102 59.1445C146.633 58.7695 146.227 58.2969 145.883 57.7266C145.547 57.1484 145.289 56.4609 145.109 55.6641C144.93 54.8672 144.84 53.9531 144.84 52.9219V49.9688C144.84 48.6875 144.977 47.5898 145.25 46.6758C145.531 45.7539 145.926 45 146.434 44.4141C146.949 43.8281 147.559 43.3984 148.262 43.125C148.965 42.8438 149.746 42.7031 150.605 42.7031C151.293 42.7031 151.93 42.793 152.516 42.9727C153.109 43.1445 153.645 43.4141 154.121 43.7812C154.598 44.1484 155.004 44.6211 155.34 45.1992C155.676 45.7695 155.934 46.4531 156.113 47.25C156.293 48.0391 156.383 48.9453 156.383 49.9688ZM152.996 53.3672V49.5117C152.996 48.8945 152.961 48.3555 152.891 47.8945C152.828 47.4336 152.73 47.043 152.598 46.7227C152.465 46.3945 152.301 46.1289 152.105 45.9258C151.91 45.7227 151.688 45.5742 151.438 45.4805C151.188 45.3867 150.91 45.3398 150.605 45.3398C150.223 45.3398 149.883 45.4141 149.586 45.5625C149.297 45.7109 149.051 45.9492 148.848 46.2773C148.645 46.5977 148.488 47.0273 148.379 47.5664C148.277 48.0977 148.227 48.7461 148.227 49.5117V53.3672C148.227 53.9844 148.258 54.5273 148.32 54.9961C148.391 55.4648 148.492 55.8672 148.625 56.2031C148.766 56.5312 148.93 56.8008 149.117 57.0117C149.312 57.2148 149.535 57.3633 149.785 57.457C150.043 57.5508 150.324 57.5977 150.629 57.5977C151.004 57.5977 151.336 57.5234 151.625 57.375C151.922 57.2188 152.172 56.9766 152.375 56.6484C152.586 56.3125 152.742 55.875 152.844 55.3359C152.945 54.7969 152.996 54.1406 152.996 53.3672Z" fill="#162C56"/>
<path d="M96.3984 154.535C96.3984 154.23 96.3516 153.957 96.2578 153.715C96.1719 153.465 96.0078 153.238 95.7656 153.035C95.5234 152.824 95.1836 152.617 94.7461 152.414C94.3086 152.211 93.7422 152 93.0469 151.781C92.2734 151.531 91.5391 151.25 90.8438 150.938C90.1562 150.625 89.5469 150.262 89.0156 149.848C88.4922 149.426 88.0781 148.938 87.7734 148.383C87.4766 147.828 87.3281 147.184 87.3281 146.449C87.3281 145.738 87.4844 145.094 87.7969 144.516C88.1094 143.93 88.5469 143.43 89.1094 143.016C89.6719 142.594 90.3359 142.27 91.1016 142.043C91.875 141.816 92.7227 141.703 93.6445 141.703C94.9023 141.703 96 141.93 96.9375 142.383C97.875 142.836 98.6016 143.457 99.1172 144.246C99.6406 145.035 99.9023 145.938 99.9023 146.953H96.4102C96.4102 146.453 96.3047 146.016 96.0938 145.641C95.8906 145.258 95.5781 144.957 95.1562 144.738C94.7422 144.52 94.2188 144.41 93.5859 144.41C92.9766 144.41 92.4688 144.504 92.0625 144.691C91.6562 144.871 91.3516 145.117 91.1484 145.43C90.9453 145.734 90.8438 146.078 90.8438 146.461C90.8438 146.75 90.9141 147.012 91.0547 147.246C91.2031 147.48 91.4219 147.699 91.7109 147.902C92 148.105 92.3555 148.297 92.7773 148.477C93.1992 148.656 93.6875 148.832 94.2422 149.004C95.1719 149.285 95.9883 149.602 96.6914 149.953C97.4023 150.305 97.9961 150.699 98.4727 151.137C98.9492 151.574 99.3086 152.07 99.5508 152.625C99.793 153.18 99.9141 153.809 99.9141 154.512C99.9141 155.254 99.7695 155.918 99.4805 156.504C99.1914 157.09 98.7734 157.586 98.2266 157.992C97.6797 158.398 97.0273 158.707 96.2695 158.918C95.5117 159.129 94.6641 159.234 93.7266 159.234C92.8828 159.234 92.0508 159.125 91.2305 158.906C90.4102 158.68 89.6641 158.34 88.9922 157.887C88.3281 157.434 87.7969 156.855 87.3984 156.152C87 155.449 86.8008 154.617 86.8008 153.656H90.3281C90.3281 154.188 90.4102 154.637 90.5742 155.004C90.7383 155.371 90.9688 155.668 91.2656 155.895C91.5703 156.121 91.9297 156.285 92.3438 156.387C92.7656 156.488 93.2266 156.539 93.7266 156.539C94.3359 156.539 94.8359 156.453 95.2266 156.281C95.625 156.109 95.918 155.871 96.1055 155.566C96.3008 155.262 96.3984 154.918 96.3984 154.535ZM109.383 141.938L103.125 160.465H100.617L106.875 141.938H109.383ZM128.508 156.363V159H116.836V156.75L122.355 150.832C122.91 150.215 123.348 149.672 123.668 149.203C123.988 148.727 124.219 148.301 124.359 147.926C124.508 147.543 124.582 147.18 124.582 146.836C124.582 146.32 124.496 145.879 124.324 145.512C124.152 145.137 123.898 144.848 123.562 144.645C123.234 144.441 122.828 144.34 122.344 144.34C121.828 144.34 121.383 144.465 121.008 144.715C120.641 144.965 120.359 145.312 120.164 145.758C119.977 146.203 119.883 146.707 119.883 147.27H116.496C116.496 146.254 116.738 145.324 117.223 144.48C117.707 143.629 118.391 142.953 119.273 142.453C120.156 141.945 121.203 141.691 122.414 141.691C123.609 141.691 124.617 141.887 125.438 142.277C126.266 142.66 126.891 143.215 127.312 143.941C127.742 144.66 127.957 145.52 127.957 146.52C127.957 147.082 127.867 147.633 127.688 148.172C127.508 148.703 127.25 149.234 126.914 149.766C126.586 150.289 126.188 150.82 125.719 151.359C125.25 151.898 124.73 152.457 124.16 153.035L121.195 156.363H128.508ZM142.102 148.969V151.922C142.102 153.203 141.965 154.309 141.691 155.238C141.418 156.16 141.023 156.918 140.508 157.512C140 158.098 139.395 158.531 138.691 158.812C137.988 159.094 137.207 159.234 136.348 159.234C135.66 159.234 135.02 159.148 134.426 158.977C133.832 158.797 133.297 158.52 132.82 158.145C132.352 157.77 131.945 157.297 131.602 156.727C131.266 156.148 131.008 155.461 130.828 154.664C130.648 153.867 130.559 152.953 130.559 151.922V148.969C130.559 147.688 130.695 146.59 130.969 145.676C131.25 144.754 131.645 144 132.152 143.414C132.668 142.828 133.277 142.398 133.98 142.125C134.684 141.844 135.465 141.703 136.324 141.703C137.012 141.703 137.648 141.793 138.234 141.973C138.828 142.145 139.363 142.414 139.84 142.781C140.316 143.148 140.723 143.621 141.059 144.199C141.395 144.77 141.652 145.453 141.832 146.25C142.012 147.039 142.102 147.945 142.102 148.969ZM138.715 152.367V148.512C138.715 147.895 138.68 147.355 138.609 146.895C138.547 146.434 138.449 146.043 138.316 145.723C138.184 145.395 138.02 145.129 137.824 144.926C137.629 144.723 137.406 144.574 137.156 144.48C136.906 144.387 136.629 144.34 136.324 144.34C135.941 144.34 135.602 144.414 135.305 144.562C135.016 144.711 134.77 144.949 134.566 145.277C134.363 145.598 134.207 146.027 134.098 146.566C133.996 147.098 133.945 147.746 133.945 148.512V152.367C133.945 152.984 133.977 153.527 134.039 153.996C134.109 154.465 134.211 154.867 134.344 155.203C134.484 155.531 134.648 155.801 134.836 156.012C135.031 156.215 135.254 156.363 135.504 156.457C135.762 156.551 136.043 156.598 136.348 156.598C136.723 156.598 137.055 156.523 137.344 156.375C137.641 156.219 137.891 155.977 138.094 155.648C138.305 155.312 138.461 154.875 138.562 154.336C138.664 153.797 138.715 153.141 138.715 152.367ZM155.883 148.969V151.922C155.883 153.203 155.746 154.309 155.473 155.238C155.199 156.16 154.805 156.918 154.289 157.512C153.781 158.098 153.176 158.531 152.473 158.812C151.77 159.094 150.988 159.234 150.129 159.234C149.441 159.234 148.801 159.148 148.207 158.977C147.613 158.797 147.078 158.52 146.602 158.145C146.133 157.77 145.727 157.297 145.383 156.727C145.047 156.148 144.789 155.461 144.609 154.664C144.43 153.867 144.34 152.953 144.34 151.922V148.969C144.34 147.688 144.477 146.59 144.75 145.676C145.031 144.754 145.426 144 145.934 143.414C146.449 142.828 147.059 142.398 147.762 142.125C148.465 141.844 149.246 141.703 150.105 141.703C150.793 141.703 151.43 141.793 152.016 141.973C152.609 142.145 153.145 142.414 153.621 142.781C154.098 143.148 154.504 143.621 154.84 144.199C155.176 144.77 155.434 145.453 155.613 146.25C155.793 147.039 155.883 147.945 155.883 148.969ZM152.496 152.367V148.512C152.496 147.895 152.461 147.355 152.391 146.895C152.328 146.434 152.23 146.043 152.098 145.723C151.965 145.395 151.801 145.129 151.605 144.926C151.41 144.723 151.188 144.574 150.938 144.48C150.688 144.387 150.41 144.34 150.105 144.34C149.723 144.34 149.383 144.414 149.086 144.562C148.797 144.711 148.551 144.949 148.348 145.277C148.145 145.598 147.988 146.027 147.879 146.566C147.777 147.098 147.727 147.746 147.727 148.512V152.367C147.727 152.984 147.758 153.527 147.82 153.996C147.891 154.465 147.992 154.867 148.125 155.203C148.266 155.531 148.43 155.801 148.617 156.012C148.812 156.215 149.035 156.363 149.285 156.457C149.543 156.551 149.824 156.598 150.129 156.598C150.504 156.598 150.836 156.523 151.125 156.375C151.422 156.219 151.672 155.977 151.875 155.648C152.086 155.312 152.242 154.875 152.344 154.336C152.445 153.797 152.496 153.141 152.496 152.367Z" fill="#162C56"/>
<path d="M75.6455 77.9268V79H70.375V77.9268H75.6455ZM70.6416 69.0469V79H69.3223V69.0469H70.6416ZM74.9482 73.3262V74.3994H70.375V73.3262H74.9482ZM75.5771 69.0469V70.127H70.375V69.0469H75.5771ZM78.3525 73.1826V79H77.0879V71.6035H78.2842L78.3525 73.1826ZM78.0518 75.0215L77.5254 75.001C77.5299 74.4951 77.6051 74.028 77.751 73.5996C77.8968 73.1667 78.1019 72.7907 78.3662 72.4717C78.6305 72.1527 78.945 71.9066 79.3096 71.7334C79.6787 71.5557 80.0866 71.4668 80.5332 71.4668C80.8978 71.4668 81.2259 71.5169 81.5176 71.6172C81.8092 71.7129 82.0576 71.8678 82.2627 72.082C82.4723 72.2962 82.6318 72.5742 82.7412 72.916C82.8506 73.2533 82.9053 73.6657 82.9053 74.1533V79H81.6338V74.1396C81.6338 73.7523 81.5768 73.4424 81.4629 73.21C81.349 72.973 81.1826 72.8021 80.9639 72.6973C80.7451 72.5879 80.4762 72.5332 80.1572 72.5332C79.8428 72.5332 79.5557 72.5993 79.2959 72.7314C79.0407 72.8636 78.8197 73.0459 78.6328 73.2783C78.4505 73.5107 78.307 73.7773 78.2021 74.0781C78.1019 74.3743 78.0518 74.6888 78.0518 75.0215ZM92.1611 75.0967H89.502V74.0234H92.1611C92.6761 74.0234 93.0931 73.9414 93.4121 73.7773C93.7311 73.6133 93.9635 73.3854 94.1094 73.0938C94.2598 72.8021 94.335 72.4694 94.335 72.0957C94.335 71.7539 94.2598 71.4326 94.1094 71.1318C93.9635 70.8311 93.7311 70.5895 93.4121 70.4072C93.0931 70.2204 92.6761 70.127 92.1611 70.127H89.8096V79H88.4902V69.0469H92.1611C92.9131 69.0469 93.5488 69.1768 94.0684 69.4365C94.5879 69.6963 94.9821 70.0563 95.251 70.5166C95.5199 70.9723 95.6543 71.4941 95.6543 72.082C95.6543 72.7201 95.5199 73.2646 95.251 73.7158C94.9821 74.167 94.5879 74.5111 94.0684 74.748C93.5488 74.9805 92.9131 75.0967 92.1611 75.0967ZM101.656 77.291V71.6035H102.928V79H101.718L101.656 77.291ZM101.896 75.7324L102.422 75.7188C102.422 76.2109 102.369 76.6667 102.265 77.0859C102.164 77.5007 102 77.8607 101.772 78.166C101.545 78.4714 101.246 78.7106 100.877 78.8838C100.508 79.0524 100.059 79.1367 99.5303 79.1367C99.1702 79.1367 98.8398 79.0843 98.5391 78.9795C98.2428 78.8747 97.9876 78.7129 97.7734 78.4941C97.5592 78.2754 97.3929 77.9906 97.2744 77.6396C97.1605 77.2887 97.1035 76.8672 97.1035 76.375V71.6035H98.3682V76.3887C98.3682 76.7214 98.4046 76.9971 98.4775 77.2158C98.555 77.43 98.6576 77.6009 98.7852 77.7285C98.9173 77.8516 99.0632 77.9382 99.2227 77.9883C99.3867 78.0384 99.5553 78.0635 99.7285 78.0635C100.266 78.0635 100.692 77.9609 101.007 77.7559C101.321 77.5462 101.547 77.266 101.684 76.915C101.825 76.5596 101.896 76.1654 101.896 75.7324ZM106.12 73.1826V79H104.855V71.6035H106.052L106.12 73.1826ZM105.819 75.0215L105.293 75.001C105.298 74.4951 105.373 74.028 105.519 73.5996C105.664 73.1667 105.869 72.7907 106.134 72.4717C106.398 72.1527 106.713 71.9066 107.077 71.7334C107.446 71.5557 107.854 71.4668 108.301 71.4668C108.665 71.4668 108.993 71.5169 109.285 71.6172C109.577 71.7129 109.825 71.8678 110.03 72.082C110.24 72.2962 110.399 72.5742 110.509 72.916C110.618 73.2533 110.673 73.6657 110.673 74.1533V79H109.401V74.1396C109.401 73.7523 109.344 73.4424 109.23 73.21C109.117 72.973 108.95 72.8021 108.731 72.6973C108.513 72.5879 108.244 72.5332 107.925 72.5332C107.61 72.5332 107.323 72.5993 107.063 72.7314C106.808 72.8636 106.587 73.0459 106.4 73.2783C106.218 73.5107 106.075 73.7773 105.97 74.0781C105.869 74.3743 105.819 74.6888 105.819 75.0215ZM115.69 71.6035V72.5742H111.691V71.6035H115.69ZM113.045 69.8057H114.31V77.168C114.31 77.4186 114.348 77.6077 114.426 77.7354C114.503 77.863 114.604 77.9473 114.727 77.9883C114.85 78.0293 114.982 78.0498 115.123 78.0498C115.228 78.0498 115.337 78.0407 115.451 78.0225C115.57 77.9997 115.659 77.9814 115.718 77.9678L115.725 79C115.624 79.0319 115.492 79.0615 115.328 79.0889C115.169 79.1208 114.975 79.1367 114.747 79.1367C114.437 79.1367 114.152 79.0752 113.893 78.9521C113.633 78.8291 113.425 78.624 113.271 78.3369C113.12 78.0452 113.045 77.6533 113.045 77.1611V69.8057ZM116.702 75.3838V75.2266C116.702 74.6934 116.78 74.1989 116.935 73.7432C117.09 73.2829 117.313 72.8841 117.604 72.5469C117.896 72.2051 118.249 71.9408 118.664 71.7539C119.079 71.5625 119.544 71.4668 120.059 71.4668C120.578 71.4668 121.045 71.5625 121.46 71.7539C121.879 71.9408 122.235 72.2051 122.526 72.5469C122.823 72.8841 123.048 73.2829 123.203 73.7432C123.358 74.1989 123.436 74.6934 123.436 75.2266V75.3838C123.436 75.917 123.358 76.4115 123.203 76.8672C123.048 77.3229 122.823 77.7217 122.526 78.0635C122.235 78.4007 121.882 78.665 121.467 78.8564C121.057 79.0433 120.592 79.1367 120.072 79.1367C119.553 79.1367 119.086 79.0433 118.671 78.8564C118.256 78.665 117.901 78.4007 117.604 78.0635C117.313 77.7217 117.09 77.3229 116.935 76.8672C116.78 76.4115 116.702 75.917 116.702 75.3838ZM117.967 75.2266V75.3838C117.967 75.7529 118.01 76.1016 118.097 76.4297C118.183 76.7533 118.313 77.0404 118.486 77.291C118.664 77.5417 118.885 77.7399 119.149 77.8857C119.414 78.027 119.721 78.0977 120.072 78.0977C120.419 78.0977 120.722 78.027 120.981 77.8857C121.246 77.7399 121.465 77.5417 121.638 77.291C121.811 77.0404 121.941 76.7533 122.027 76.4297C122.118 76.1016 122.164 75.7529 122.164 75.3838V75.2266C122.164 74.862 122.118 74.5179 122.027 74.1943C121.941 73.8662 121.809 73.5768 121.631 73.3262C121.458 73.071 121.239 72.8704 120.975 72.7246C120.715 72.5788 120.41 72.5059 120.059 72.5059C119.712 72.5059 119.407 72.5788 119.143 72.7246C118.883 72.8704 118.664 73.071 118.486 73.3262C118.313 73.5768 118.183 73.8662 118.097 74.1943C118.01 74.5179 117.967 74.862 117.967 75.2266ZM129.328 77.0381C129.328 76.8558 129.287 76.6872 129.205 76.5322C129.128 76.3727 128.966 76.2292 128.72 76.1016C128.478 75.9694 128.114 75.8555 127.626 75.7598C127.216 75.6732 126.844 75.5706 126.512 75.4521C126.184 75.3337 125.903 75.1901 125.671 75.0215C125.443 74.8529 125.268 74.6546 125.145 74.4268C125.021 74.1989 124.96 73.9323 124.96 73.627C124.96 73.3353 125.024 73.0596 125.151 72.7998C125.284 72.54 125.468 72.3099 125.705 72.1094C125.947 71.9089 126.236 71.7516 126.573 71.6377C126.91 71.5238 127.286 71.4668 127.701 71.4668C128.294 71.4668 128.799 71.5716 129.219 71.7812C129.638 71.9909 129.959 72.2712 130.183 72.6221C130.406 72.9684 130.518 73.3535 130.518 73.7773H129.253C129.253 73.5723 129.191 73.374 129.068 73.1826C128.95 72.9867 128.774 72.8249 128.542 72.6973C128.314 72.5697 128.034 72.5059 127.701 72.5059C127.35 72.5059 127.065 72.5605 126.847 72.6699C126.632 72.7747 126.475 72.9092 126.375 73.0732C126.279 73.2373 126.231 73.4105 126.231 73.5928C126.231 73.7295 126.254 73.8525 126.3 73.9619C126.35 74.0667 126.437 74.1647 126.56 74.2559C126.683 74.3424 126.856 74.4245 127.079 74.502C127.302 74.5794 127.587 74.6569 127.934 74.7344C128.54 74.8711 129.039 75.0352 129.431 75.2266C129.823 75.418 130.114 75.6527 130.306 75.9307C130.497 76.2087 130.593 76.5459 130.593 76.9424C130.593 77.266 130.524 77.5622 130.388 77.8311C130.256 78.0999 130.062 78.3324 129.807 78.5283C129.556 78.7197 129.255 78.8701 128.904 78.9795C128.558 79.0843 128.168 79.1367 127.735 79.1367C127.084 79.1367 126.532 79.0205 126.081 78.7881C125.63 78.5557 125.288 78.2549 125.056 77.8857C124.823 77.5166 124.707 77.127 124.707 76.7168H125.979C125.997 77.0632 126.097 77.3389 126.279 77.5439C126.462 77.7445 126.685 77.888 126.949 77.9746C127.214 78.0566 127.476 78.0977 127.735 78.0977C128.082 78.0977 128.371 78.0521 128.604 77.9609C128.84 77.8698 129.021 77.7445 129.144 77.585C129.267 77.4255 129.328 77.2432 129.328 77.0381ZM139.466 74.3447H136.943L136.93 73.2852H139.22C139.598 73.2852 139.928 73.2214 140.211 73.0938C140.493 72.9661 140.712 72.7839 140.867 72.5469C141.027 72.3053 141.106 72.0182 141.106 71.6855C141.106 71.321 141.036 71.0247 140.895 70.7969C140.758 70.5645 140.546 70.3958 140.259 70.291C139.976 70.1816 139.616 70.127 139.179 70.127H137.237V79H135.918V69.0469H139.179C139.689 69.0469 140.145 69.0993 140.546 69.2041C140.947 69.3044 141.286 69.4639 141.564 69.6826C141.847 69.8968 142.061 70.1702 142.207 70.5029C142.353 70.8356 142.426 71.2344 142.426 71.6992C142.426 72.1094 142.321 72.4808 142.111 72.8135C141.902 73.1416 141.61 73.4105 141.236 73.6201C140.867 73.8298 140.434 73.9642 139.938 74.0234L139.466 74.3447ZM139.404 79H136.424L137.169 77.9268H139.404C139.824 77.9268 140.179 77.8538 140.471 77.708C140.767 77.5622 140.993 77.3571 141.147 77.0928C141.302 76.8239 141.38 76.5072 141.38 76.1426C141.38 75.7734 141.314 75.4544 141.182 75.1855C141.049 74.9167 140.842 74.7093 140.56 74.5635C140.277 74.4176 139.912 74.3447 139.466 74.3447H137.586L137.6 73.2852H140.17L140.45 73.668C140.929 73.709 141.334 73.8457 141.667 74.0781C142 74.306 142.253 74.5977 142.426 74.9531C142.604 75.3086 142.692 75.7005 142.692 76.1289C142.692 76.7487 142.556 77.2728 142.282 77.7012C142.013 78.125 141.633 78.4486 141.141 78.6719C140.648 78.8906 140.07 79 139.404 79ZM148.811 77.7354V73.9277C148.811 73.6361 148.751 73.3831 148.633 73.1689C148.519 72.9502 148.346 72.7816 148.113 72.6631C147.881 72.5446 147.594 72.4854 147.252 72.4854C146.933 72.4854 146.653 72.54 146.411 72.6494C146.174 72.7588 145.987 72.9023 145.851 73.0801C145.718 73.2578 145.652 73.4492 145.652 73.6543H144.388C144.388 73.39 144.456 73.1279 144.593 72.8682C144.729 72.6084 144.925 72.3737 145.181 72.1641C145.44 71.9499 145.75 71.7812 146.11 71.6582C146.475 71.5306 146.881 71.4668 147.327 71.4668C147.865 71.4668 148.339 71.5579 148.749 71.7402C149.164 71.9225 149.487 72.1982 149.72 72.5674C149.957 72.932 150.075 73.39 150.075 73.9414V77.3867C150.075 77.6328 150.096 77.8949 150.137 78.1729C150.182 78.4508 150.248 78.6901 150.335 78.8906V79H149.016C148.952 78.8542 148.902 78.6605 148.865 78.4189C148.829 78.1729 148.811 77.945 148.811 77.7354ZM149.029 74.5156L149.043 75.4043H147.765C147.405 75.4043 147.083 75.4339 146.801 75.4932C146.518 75.5479 146.281 75.6322 146.09 75.7461C145.898 75.86 145.753 76.0036 145.652 76.1768C145.552 76.3454 145.502 76.5436 145.502 76.7715C145.502 77.0039 145.554 77.2158 145.659 77.4072C145.764 77.5986 145.921 77.7513 146.131 77.8652C146.345 77.9746 146.607 78.0293 146.917 78.0293C147.304 78.0293 147.646 77.9473 147.942 77.7832C148.239 77.6191 148.473 77.4186 148.646 77.1816C148.824 76.9447 148.92 76.7145 148.934 76.4912L149.474 77.0996C149.442 77.291 149.355 77.5029 149.214 77.7354C149.073 77.9678 148.883 78.1911 148.646 78.4053C148.414 78.6149 148.136 78.7904 147.812 78.9316C147.493 79.0684 147.133 79.1367 146.732 79.1367C146.231 79.1367 145.791 79.0387 145.413 78.8428C145.039 78.6468 144.748 78.3848 144.538 78.0566C144.333 77.724 144.23 77.3525 144.23 76.9424C144.23 76.5459 144.308 76.1973 144.463 75.8965C144.618 75.5911 144.841 75.3382 145.133 75.1377C145.424 74.9326 145.775 74.7777 146.186 74.6729C146.596 74.568 147.054 74.5156 147.56 74.5156H149.029ZM153.329 73.1826V79H152.064V71.6035H153.261L153.329 73.1826ZM153.028 75.0215L152.502 75.001C152.507 74.4951 152.582 74.028 152.728 73.5996C152.873 73.1667 153.078 72.7907 153.343 72.4717C153.607 72.1527 153.922 71.9066 154.286 71.7334C154.655 71.5557 155.063 71.4668 155.51 71.4668C155.874 71.4668 156.202 71.5169 156.494 71.6172C156.786 71.7129 157.034 71.8678 157.239 72.082C157.449 72.2962 157.608 72.5742 157.718 72.916C157.827 73.2533 157.882 73.6657 157.882 74.1533V79H156.61V74.1396C156.61 73.7523 156.553 73.4424 156.439 73.21C156.326 72.973 156.159 72.8021 155.94 72.6973C155.722 72.5879 155.453 72.5332 155.134 72.5332C154.819 72.5332 154.532 72.5993 154.272 72.7314C154.017 72.8636 153.796 73.0459 153.609 73.2783C153.427 73.5107 153.284 73.7773 153.179 74.0781C153.078 74.3743 153.028 74.6888 153.028 75.0215ZM163.542 74.3447H161.02L161.006 73.2852H163.296C163.674 73.2852 164.005 73.2214 164.287 73.0938C164.57 72.9661 164.788 72.7839 164.943 72.5469C165.103 72.3053 165.183 72.0182 165.183 71.6855C165.183 71.321 165.112 71.0247 164.971 70.7969C164.834 70.5645 164.622 70.3958 164.335 70.291C164.052 70.1816 163.692 70.127 163.255 70.127H161.313V79H159.994V69.0469H163.255C163.765 69.0469 164.221 69.0993 164.622 69.2041C165.023 69.3044 165.363 69.4639 165.641 69.6826C165.923 69.8968 166.137 70.1702 166.283 70.5029C166.429 70.8356 166.502 71.2344 166.502 71.6992C166.502 72.1094 166.397 72.4808 166.188 72.8135C165.978 73.1416 165.686 73.4105 165.312 73.6201C164.943 73.8298 164.51 73.9642 164.014 74.0234L163.542 74.3447ZM163.48 79H160.5L161.245 77.9268H163.48C163.9 77.9268 164.255 77.8538 164.547 77.708C164.843 77.5622 165.069 77.3571 165.224 77.0928C165.379 76.8239 165.456 76.5072 165.456 76.1426C165.456 75.7734 165.39 75.4544 165.258 75.1855C165.126 74.9167 164.918 74.7093 164.636 74.5635C164.353 74.4176 163.989 74.3447 163.542 74.3447H161.662L161.676 73.2852H164.246L164.526 73.668C165.005 73.709 165.41 73.8457 165.743 74.0781C166.076 74.306 166.329 74.5977 166.502 74.9531C166.68 75.3086 166.769 75.7005 166.769 76.1289C166.769 76.7487 166.632 77.2728 166.358 77.7012C166.09 78.125 165.709 78.4486 165.217 78.6719C164.725 78.8906 164.146 79 163.48 79ZM169.899 71.6035V79H168.628V71.6035H169.899ZM168.532 69.6416C168.532 69.4365 168.594 69.2633 168.717 69.1221C168.844 68.9808 169.031 68.9102 169.277 68.9102C169.519 68.9102 169.703 68.9808 169.831 69.1221C169.963 69.2633 170.029 69.4365 170.029 69.6416C170.029 69.8376 169.963 70.0062 169.831 70.1475C169.703 70.2842 169.519 70.3525 169.277 70.3525C169.031 70.3525 168.844 70.2842 168.717 70.1475C168.594 70.0062 168.532 69.8376 168.532 69.6416ZM173.816 79H172.552V70.8242C172.552 70.291 172.647 69.8421 172.839 69.4775C173.035 69.1084 173.315 68.8304 173.68 68.6436C174.044 68.4521 174.477 68.3564 174.979 68.3564C175.124 68.3564 175.27 68.3656 175.416 68.3838C175.566 68.402 175.712 68.4294 175.854 68.4658L175.785 69.498C175.689 69.4753 175.58 69.4593 175.457 69.4502C175.339 69.4411 175.22 69.4365 175.102 69.4365C174.833 69.4365 174.6 69.4912 174.404 69.6006C174.213 69.7054 174.067 69.8604 173.967 70.0654C173.867 70.2705 173.816 70.5234 173.816 70.8242V79ZM175.389 71.6035V72.5742H171.383V71.6035H175.389Z" fill="#162C56"/>
<path d="M91.2969 178.773V180H85.2734V178.773H91.2969ZM85.5781 168.625V180H84.0703V168.625H85.5781ZM90.5 173.516V174.742H85.2734V173.516H90.5ZM91.2188 168.625V169.859H85.2734V168.625H91.2188ZM94.3906 173.352V180H92.9453V171.547H94.3125L94.3906 173.352ZM94.0469 175.453L93.4453 175.43C93.4505 174.852 93.5365 174.318 93.7031 173.828C93.8698 173.333 94.1042 172.904 94.4062 172.539C94.7083 172.174 95.0677 171.893 95.4844 171.695C95.9062 171.492 96.3724 171.391 96.8828 171.391C97.2995 171.391 97.6745 171.448 98.0078 171.562C98.3411 171.672 98.625 171.849 98.8594 172.094C99.099 172.339 99.2812 172.656 99.4062 173.047C99.5312 173.432 99.5938 173.904 99.5938 174.461V180H98.1406V174.445C98.1406 174.003 98.0755 173.648 97.9453 173.383C97.8151 173.112 97.625 172.917 97.375 172.797C97.125 172.672 96.8177 172.609 96.4531 172.609C96.0938 172.609 95.7656 172.685 95.4688 172.836C95.1771 172.987 94.9245 173.195 94.7109 173.461C94.5026 173.727 94.3385 174.031 94.2188 174.375C94.1042 174.714 94.0469 175.073 94.0469 175.453ZM109.266 180.156C108.677 180.156 108.143 180.057 107.664 179.859C107.19 179.656 106.781 179.372 106.438 179.008C106.099 178.643 105.839 178.211 105.656 177.711C105.474 177.211 105.383 176.664 105.383 176.07V175.742C105.383 175.055 105.484 174.443 105.688 173.906C105.891 173.365 106.167 172.906 106.516 172.531C106.865 172.156 107.26 171.872 107.703 171.68C108.146 171.487 108.604 171.391 109.078 171.391C109.682 171.391 110.203 171.495 110.641 171.703C111.083 171.911 111.445 172.203 111.727 172.578C112.008 172.948 112.216 173.385 112.352 173.891C112.487 174.391 112.555 174.938 112.555 175.531V176.18H106.242V175H111.109V174.891C111.089 174.516 111.01 174.151 110.875 173.797C110.745 173.443 110.536 173.151 110.25 172.922C109.964 172.693 109.573 172.578 109.078 172.578C108.75 172.578 108.448 172.648 108.172 172.789C107.896 172.924 107.659 173.128 107.461 173.398C107.263 173.669 107.109 174 107 174.391C106.891 174.781 106.836 175.232 106.836 175.742V176.07C106.836 176.471 106.891 176.849 107 177.203C107.115 177.552 107.279 177.859 107.492 178.125C107.711 178.391 107.974 178.599 108.281 178.75C108.594 178.901 108.948 178.977 109.344 178.977C109.854 178.977 110.286 178.872 110.641 178.664C110.995 178.456 111.305 178.177 111.57 177.828L112.445 178.523C112.263 178.799 112.031 179.062 111.75 179.312C111.469 179.562 111.122 179.766 110.711 179.922C110.305 180.078 109.823 180.156 109.266 180.156ZM116.398 180H114.953V170.656C114.953 170.047 115.062 169.534 115.281 169.117C115.505 168.695 115.826 168.378 116.242 168.164C116.659 167.945 117.154 167.836 117.727 167.836C117.893 167.836 118.06 167.846 118.227 167.867C118.398 167.888 118.565 167.919 118.727 167.961L118.648 169.141C118.539 169.115 118.414 169.096 118.273 169.086C118.138 169.076 118.003 169.07 117.867 169.07C117.56 169.07 117.294 169.133 117.07 169.258C116.852 169.378 116.685 169.555 116.57 169.789C116.456 170.023 116.398 170.312 116.398 170.656V180ZM118.195 171.547V172.656H113.617V171.547H118.195ZM123.125 180.156C122.536 180.156 122.003 180.057 121.523 179.859C121.049 179.656 120.641 179.372 120.297 179.008C119.958 178.643 119.698 178.211 119.516 177.711C119.333 177.211 119.242 176.664 119.242 176.07V175.742C119.242 175.055 119.344 174.443 119.547 173.906C119.75 173.365 120.026 172.906 120.375 172.531C120.724 172.156 121.12 171.872 121.562 171.68C122.005 171.487 122.464 171.391 122.938 171.391C123.542 171.391 124.062 171.495 124.5 171.703C124.943 171.911 125.305 172.203 125.586 172.578C125.867 172.948 126.076 173.385 126.211 173.891C126.346 174.391 126.414 174.938 126.414 175.531V176.18H120.102V175H124.969V174.891C124.948 174.516 124.87 174.151 124.734 173.797C124.604 173.443 124.396 173.151 124.109 172.922C123.823 172.693 123.432 172.578 122.938 172.578C122.609 172.578 122.307 172.648 122.031 172.789C121.755 172.924 121.518 173.128 121.32 173.398C121.122 173.669 120.969 174 120.859 174.391C120.75 174.781 120.695 175.232 120.695 175.742V176.07C120.695 176.471 120.75 176.849 120.859 177.203C120.974 177.552 121.138 177.859 121.352 178.125C121.57 178.391 121.833 178.599 122.141 178.75C122.453 178.901 122.807 178.977 123.203 178.977C123.714 178.977 124.146 178.872 124.5 178.664C124.854 178.456 125.164 178.177 125.43 177.828L126.305 178.523C126.122 178.799 125.891 179.062 125.609 179.312C125.328 179.562 124.982 179.766 124.57 179.922C124.164 180.078 123.682 180.156 123.125 180.156ZM131.484 178.969C131.828 178.969 132.146 178.898 132.438 178.758C132.729 178.617 132.969 178.424 133.156 178.18C133.344 177.93 133.451 177.646 133.477 177.328H134.852C134.826 177.828 134.656 178.294 134.344 178.727C134.036 179.154 133.633 179.5 133.133 179.766C132.633 180.026 132.083 180.156 131.484 180.156C130.849 180.156 130.294 180.044 129.82 179.82C129.352 179.596 128.961 179.289 128.648 178.898C128.341 178.508 128.109 178.06 127.953 177.555C127.802 177.044 127.727 176.505 127.727 175.938V175.609C127.727 175.042 127.802 174.505 127.953 174C128.109 173.49 128.341 173.039 128.648 172.648C128.961 172.258 129.352 171.951 129.82 171.727C130.294 171.503 130.849 171.391 131.484 171.391C132.146 171.391 132.724 171.526 133.219 171.797C133.714 172.062 134.102 172.427 134.383 172.891C134.669 173.349 134.826 173.87 134.852 174.453H133.477C133.451 174.104 133.352 173.789 133.18 173.508C133.013 173.227 132.784 173.003 132.492 172.836C132.206 172.664 131.87 172.578 131.484 172.578C131.042 172.578 130.669 172.667 130.367 172.844C130.07 173.016 129.833 173.25 129.656 173.547C129.484 173.839 129.359 174.164 129.281 174.523C129.208 174.878 129.172 175.24 129.172 175.609V175.938C129.172 176.307 129.208 176.672 129.281 177.031C129.354 177.391 129.477 177.716 129.648 178.008C129.826 178.299 130.062 178.534 130.359 178.711C130.661 178.883 131.036 178.969 131.484 178.969ZM140.016 171.547V172.656H135.445V171.547H140.016ZM136.992 169.492H138.438V177.906C138.438 178.193 138.482 178.409 138.57 178.555C138.659 178.701 138.773 178.797 138.914 178.844C139.055 178.891 139.206 178.914 139.367 178.914C139.487 178.914 139.612 178.904 139.742 178.883C139.878 178.857 139.979 178.836 140.047 178.82L140.055 180C139.94 180.036 139.789 180.07 139.602 180.102C139.419 180.138 139.198 180.156 138.938 180.156C138.583 180.156 138.258 180.086 137.961 179.945C137.664 179.805 137.427 179.57 137.25 179.242C137.078 178.909 136.992 178.461 136.992 177.898V169.492ZM143.281 171.547V180H141.828V171.547H143.281ZM141.719 169.305C141.719 169.07 141.789 168.872 141.93 168.711C142.076 168.549 142.289 168.469 142.57 168.469C142.846 168.469 143.057 168.549 143.203 168.711C143.354 168.872 143.43 169.07 143.43 169.305C143.43 169.529 143.354 169.721 143.203 169.883C143.057 170.039 142.846 170.117 142.57 170.117C142.289 170.117 142.076 170.039 141.93 169.883C141.789 169.721 141.719 169.529 141.719 169.305ZM148.172 178.695L150.484 171.547H151.961L148.922 180H147.953L148.172 178.695ZM146.242 171.547L148.625 178.734L148.789 180H147.82L144.758 171.547H146.242ZM152.844 175.867V175.688C152.844 175.078 152.932 174.513 153.109 173.992C153.286 173.466 153.542 173.01 153.875 172.625C154.208 172.234 154.612 171.932 155.086 171.719C155.56 171.5 156.091 171.391 156.68 171.391C157.273 171.391 157.807 171.5 158.281 171.719C158.76 171.932 159.167 172.234 159.5 172.625C159.839 173.01 160.096 173.466 160.273 173.992C160.451 174.513 160.539 175.078 160.539 175.688V175.867C160.539 176.477 160.451 177.042 160.273 177.562C160.096 178.083 159.839 178.539 159.5 178.93C159.167 179.315 158.763 179.617 158.289 179.836C157.82 180.049 157.289 180.156 156.695 180.156C156.102 180.156 155.568 180.049 155.094 179.836C154.62 179.617 154.214 179.315 153.875 178.93C153.542 178.539 153.286 178.083 153.109 177.562C152.932 177.042 152.844 176.477 152.844 175.867ZM154.289 175.688V175.867C154.289 176.289 154.339 176.688 154.438 177.062C154.536 177.432 154.685 177.76 154.883 178.047C155.086 178.333 155.339 178.56 155.641 178.727C155.943 178.888 156.294 178.969 156.695 178.969C157.091 178.969 157.438 178.888 157.734 178.727C158.036 178.56 158.286 178.333 158.484 178.047C158.682 177.76 158.831 177.432 158.93 177.062C159.034 176.688 159.086 176.289 159.086 175.867V175.688C159.086 175.271 159.034 174.878 158.93 174.508C158.831 174.133 158.68 173.802 158.477 173.516C158.279 173.224 158.029 172.995 157.727 172.828C157.43 172.661 157.081 172.578 156.68 172.578C156.284 172.578 155.935 172.661 155.633 172.828C155.336 172.995 155.086 173.224 154.883 173.516C154.685 173.802 154.536 174.133 154.438 174.508C154.339 174.878 154.289 175.271 154.289 175.688Z" fill="#162C56"/>
<path d="M137.5 103.188V112.219H106.312V103.188H137.5ZM126.875 91.3125V124.438H117.031V91.3125H126.875Z" fill="#20A6FF"/>
<defs>
<filter id="filter0_d_119_17" x="0.51829" y="0.481346" width="253.815" height="145.815" filterUnits="userSpaceOnUse" color-interpolation-filters="sRGB">
<feFlood flood-opacity="0" result="BackgroundImageFix"/>
<feColorMatrix in="SourceAlpha" type="matrix" values="0 0 0 0 0 0 0 0 0 0 0 0 0 0 0 0 0 0 127 0" result="hardAlpha"/>
<feOffset dx="0.925933" dy="13.889"/>
<feGaussianBlur stdDeviation="16.2038"/>
<feColorMatrix type="matrix" values="0 0 0 0 0.835294 0 0 0 0 0.87451 0 0 0 0 0.921569 0 0 0 1 0"/>
<feBlend mode="normal" in2="BackgroundImageFix" result="effect1_dropShadow_119_17"/>
<feBlend mode="normal" in="SourceGraphic" in2="effect1_dropShadow_119_17" result="shape"/>
</filter>
<filter id="filter1_d_119_17" x="0.51829" y="96.4813" width="253.815" height="145.815" filterUnits="userSpaceOnUse" color-interpolation-filters="sRGB">
<feFlood flood-opacity="0" result="BackgroundImageFix"/>
<feColorMatrix in="SourceAlpha" type="matrix" values="0 0 0 0 0 0 0 0 0 0 0 0 0 0 0 0 0 0 127 0" result="hardAlpha"/>
<feOffset dx="0.925933" dy="13.889"/>
<feGaussianBlur stdDeviation="16.2038"/>
<feColorMatrix type="matrix" values="0 0 0 0 0.835294 0 0 0 0 0.87451 0 0 0 0 0.921569 0 0 0 1 0"/>
<feBlend mode="normal" in2="BackgroundImageFix" result="effect1_dropShadow_119_17"/>
<feBlend mode="normal" in="SourceGraphic" in2="effect1_dropShadow_119_17" result="shape"/>
</filter>
</defs>
</svg>
